<?xml version="1.0" standalone="no"?>
<!DOCTYPE svg PUBLIC "-//W3C//DTD SVG 20010904//EN"
 "http://www.w3.org/TR/2001/REC-SVG-20010904/DTD/svg10.dtd">
<svg version="1.0" xmlns="http://www.w3.org/2000/svg"
 width="1120.000000pt" height="385.000000pt" viewBox="0 0 1120.000000 385.000000"
 preserveAspectRatio="xMidYMid meet">
<metadata>
Created by potrace 1.16, written by Peter Selinger 2001-2019
</metadata>
<g transform="translate(0.000000,385.000000) scale(0.100000,-0.100000)"
fill="#000000" stroke="none">
<path d="M11181 2259 l-1 -1596 -42 -18 c-73 -30 -90 -36 -178 -65 -47 -16
-123 -43 -170 -60 -47 -17 -98 -35 -115 -40 -16 -5 -97 -32 -180 -60 -82 -29
-163 -56 -180 -60 -16 -5 -61 -19 -100 -33 -38 -13 -90 -30 -115 -37 -54 -15
-104 -30 -230 -70 -52 -17 -120 -38 -150 -47 -30 -9 -73 -22 -95 -28 -22 -7
-67 -21 -100 -30 -33 -10 -78 -23 -100 -30 -22 -6 -65 -19 -95 -28 -30 -8 -86
-25 -125 -36 l-70 -20 1031 0 1030 -1 -3 1908 c-2 1049 -5 1916 -7 1927 -2 11
-4 -698 -5 -1576z"/>
<path d="M3110 3564 c-41 -48 -102 -114 -135 -148 -33 -34 -98 -104 -145 -156
-47 -52 -103 -113 -125 -136 -57 -60 -106 -114 -214 -234 -52 -58 -106 -117
-120 -132 -15 -14 -66 -70 -116 -124 -49 -54 -109 -118 -132 -142 -24 -24 -43
-45 -43 -48 0 -2 -17 -21 -37 -42 -39 -38 -76 -79 -223 -242 -47 -52 -101
-111 -120 -131 -19 -20 -73 -78 -120 -129 -47 -51 -101 -110 -120 -131 -66
-71 -105 -114 -205 -224 -55 -60 -117 -126 -137 -146 -21 -20 -38 -39 -38 -43
0 -3 -17 -23 -37 -44 -21 -20 -78 -82 -128 -137 -49 -55 -107 -117 -127 -137
-21 -21 -38 -40 -38 -43 0 -2 -21 -26 -48 -52 -26 -27 -85 -90 -132 -142 -47
-51 -101 -110 -120 -131 -19 -21 -49 -53 -65 -71 -17 -19 -73 -80 -124 -136
l-93 -103 109 0 109 0 30 37 c16 20 43 51 59 67 17 17 66 70 109 118 43 48 83
85 89 81 6 -3 7 -2 4 3 -3 5 11 27 30 49 20 22 32 33 28 25 -3 -8 1 -6 9 4 9
11 16 24 16 29 0 6 9 2 19 -7 19 -17 19 -17 15 1 -5 17 27 18 962 15 757 -2
970 -5 976 -15 6 -9 8 -9 8 2 0 11 3 11 17 0 11 -9 8 0 -7 21 -23 32 -55 97
-93 190 -93 230 -104 571 -26 806 61 187 179 359 322 472 34 27 78 57 97 68
19 10 37 22 40 25 9 11 160 79 175 79 8 0 29 6 47 14 109 46 251 57 521 42
120 -7 147 -7 147 4 0 16 -242 504 -252 508 -5 2 -8 9 -8 15 0 7 -20 49 -43
94 -23 45 -94 186 -157 312 l-115 230 -110 0 -110 1 -75 -86z"/>
<path d="M4980 2856 l0 -386 245 0 245 0 0 110 c0 102 -1 110 -19 110 -11 0
-23 -5 -26 -11 -8 -12 -155 -9 -155 3 0 4 -7 8 -15 8 -14 0 -15 35 -15 271 1
149 0 273 -2 274 -2 2 -25 -1 -51 -7 -49 -10 -144 -7 -184 7 l-23 7 0 -386z"/>
<path d="M5725 3183 c-9 -32 -23 -76 -30 -98 -7 -22 -20 -69 -30 -105 -9 -36
-23 -83 -30 -105 -7 -22 -20 -69 -30 -105 -10 -36 -31 -110 -47 -165 -16 -55
-32 -108 -34 -117 -5 -17 6 -18 135 -18 l140 0 3 28 3 27 96 3 96 3 6 -31 7
-30 140 0 c77 0 140 2 140 4 0 2 -11 37 -23 77 -13 41 -32 103 -41 139 -10 36
-24 83 -31 105 -7 22 -20 69 -30 105 -9 36 -24 86 -31 113 -8 26 -20 68 -28
95 -7 26 -19 66 -25 89 -9 32 -16 41 -31 40 -11 -1 -20 -5 -20 -10 0 -10 -248
-4 -271 6 -12 6 -19 -4 -34 -50z"/>
<path d="M7442 2961 c3 -246 6 -282 21 -299 9 -10 17 -25 17 -33 0 -19 77
-100 115 -120 55 -30 164 -43 239 -29 135 25 209 92 242 216 19 76 21 544 1
544 -7 0 -18 -5 -24 -11 -10 -10 -155 -8 -208 2 -19 4 -20 -3 -25 -216 -3
-121 -9 -229 -14 -240 -21 -45 -54 -46 -78 -4 -16 27 -18 59 -18 251 l0 220
-27 -7 c-43 -12 -202 -15 -208 -5 -4 6 -13 10 -22 10 -14 0 -15 -31 -11 -279z"/>
<path d="M8150 2856 l0 -386 135 0 135 0 0 385 c0 329 -2 385 -14 385 -8 0
-17 -4 -20 -9 -7 -11 -168 -8 -208 3 l-28 8 0 -386z"/>
<path d="M8480 2856 l0 -386 135 0 135 0 1 163 c0 90 4 153 8 142 14 -34 32
-89 41 -120 5 -16 21 -65 36 -107 l27 -78 134 0 133 0 0 385 c0 329 -2 385
-14 385 -8 0 -18 -5 -21 -11 -8 -11 -174 -7 -212 6 l-23 7 0 -153 c0 -153 -8
-179 -29 -94 -10 44 -27 93 -47 143 -8 18 -14 40 -14 50 -1 22 -23 52 -39 52
-7 0 -9 -5 -6 -10 7 -12 -187 -8 -222 5 l-23 7 0 -386z"/>
<path d="M9190 3130 l0 -110 85 0 85 0 0 -275 0 -275 135 0 135 0 0 275 0 275
85 0 85 0 0 98 c0 101 -8 131 -31 116 -18 -11 -539 -13 -539 -2 0 4 -9 8 -20
8 -19 0 -20 -7 -20 -110z"/>
<path d="M9890 3221 c0 -11 -6 -38 -14 -58 -7 -21 -21 -67 -31 -103 -9 -36
-23 -85 -30 -110 -8 -25 -21 -72 -31 -105 -9 -33 -23 -78 -30 -100 -6 -22 -20
-69 -29 -105 -10 -36 -24 -82 -31 -103 -26 -69 -29 -67 120 -67 l134 0 11 30
10 30 94 0 95 0 6 -30 6 -30 141 0 c131 0 141 1 134 18 -4 9 -14 37 -21 62 -7
25 -17 59 -22 75 -5 17 -18 59 -27 95 -10 36 -23 83 -30 105 -13 40 -33 110
-63 215 -8 30 -20 71 -27 90 -7 19 -15 52 -19 73 -4 23 -13 37 -21 37 -8 0
-15 -4 -15 -8 0 -10 -257 -8 -287 3 -19 6 -23 4 -23 -14z"/>
<path d="M6882 3212 c-12 -2 -20 -6 -18 -10 2 -4 -10 -8 -27 -9 -17 -1 -33 -6
-36 -10 -3 -5 -18 -16 -33 -26 -42 -26 -104 -115 -127 -182 -60 -170 12 -353
177 -452 56 -33 162 -56 228 -47 l50 6 40 -47 c21 -26 42 -52 46 -59 8 -13 77
20 85 41 3 7 11 13 19 13 8 0 14 3 14 8 0 4 20 20 45 35 25 16 45 33 45 37 0
5 7 10 17 12 12 2 5 15 -30 53 -50 53 -55 69 -34 100 26 38 47 119 47 180 0
111 -56 229 -141 297 -23 18 -44 33 -48 33 -3 1 -16 6 -27 13 -12 6 -24 9 -27
5 -4 -3 -13 0 -21 6 -14 11 -177 13 -244 3z m163 -256 c37 -16 75 -67 75 -102
0 -31 -53 -99 -89 -114 -39 -16 -71 -2 -109 48 -46 60 -26 138 41 167 40 18
41 18 82 1z"/>
<path d="M5395 2268 c-74 -25 -181 -85 -227 -127 -72 -66 -98 -110 -98 -169 0
-80 43 -98 73 -32 10 22 32 53 48 69 43 43 150 91 203 91 64 0 76 -7 76 -45 0
-38 -41 -83 -103 -114 -47 -23 -61 -19 -54 17 3 14 3 32 0 39 -6 16 -63 17
-95 3 -23 -11 -23 -13 -25 -204 -3 -241 -5 -237 95 -211 63 17 70 21 58 34
-28 34 -49 135 -40 200 l6 46 56 1 c56 1 132 33 132 55 0 5 6 9 13 9 15 0 67
72 84 115 17 44 16 131 -2 166 -32 60 -117 85 -200 57z"/>
<path d="M3792 2174 c-29 -31 -52 -60 -52 -64 0 -5 -4 -10 -10 -12 -5 -1 -34
-37 -64 -78 -31 -41 -60 -80 -66 -87 -5 -7 -10 -15 -10 -18 0 -3 -12 -24 -26
-47 -84 -133 -181 -365 -227 -543 -65 -251 -81 -394 -74 -654 3 -113 8 -215
12 -226 7 -22 88 -49 174 -59 24 -2 47 -9 50 -15 12 -20 161 86 281 199 43 41
167 203 184 240 6 14 13 27 17 30 8 7 73 146 92 195 20 55 43 135 64 230 25
114 25 511 -1 635 -33 160 -48 225 -65 275 l-16 50 -106 3 -105 2 -52 -56z"/>
<path d="M5865 2121 c-3 -6 -1 -40 5 -76 6 -36 8 -70 5 -76 -4 -5 -24 -9 -46
-9 -21 0 -39 -4 -39 -9 0 -28 14 -41 46 -41 l33 0 -6 -170 -6 -170 31 0 c17 0
47 7 66 17 29 14 33 19 25 35 -5 10 -13 79 -16 153 l-6 135 35 0 c46 0 57 24
27 57 -13 12 -28 23 -36 23 -9 0 -13 16 -13 53 0 40 -5 58 -18 70 -20 18 -77
23 -87 8z"/>
<path d="M7965 1943 c-10 -32 -23 -80 -31 -107 -8 -26 -14 -55 -14 -64 0 -8
-6 -38 -14 -66 -8 -28 -21 -78 -30 -111 -24 -98 -45 -181 -62 -247 -38 -145
-43 -166 -58 -223 -8 -33 -22 -88 -30 -122 -9 -35 -23 -91 -32 -125 -8 -35
-22 -86 -30 -114 -28 -101 -44 -94 196 -94 l210 0 0 24 c0 14 4 36 10 51 l10
26 140 -2 c155 -1 160 -3 160 -68 l0 -31 214 0 214 0 -8 33 c-5 17 -15 59 -24
92 -8 33 -22 89 -31 125 -37 142 -59 228 -76 300 -10 43 -27 109 -45 175 -7
28 -18 73 -24 100 -6 28 -18 77 -26 110 -9 33 -22 86 -30 118 -13 52 -19 79
-55 220 -14 57 -28 68 -47 39 -14 -21 -20 -22 -223 -22 -198 0 -209 1 -219 20
-17 32 -28 24 -45 -37z m292 -638 c8 -38 21 -88 27 -110 10 -32 10 -45 -1 -67
-12 -24 -20 -28 -57 -28 -27 0 -46 5 -49 13 -8 21 2 109 18 163 8 27 15 59 15
71 0 12 5 34 12 50 l12 28 3 -25 c2 -14 11 -56 20 -95z"/>
<path d="M8650 1815 l0 -185 125 0 125 0 0 -480 0 -480 210 0 210 0 2 478 3
477 123 3 122 3 0 184 c0 142 -3 185 -13 185 -7 0 -18 -9 -25 -20 -12 -19 -23
-20 -422 -20 -399 0 -410 0 -420 20 -6 11 -17 20 -25 20 -13 0 -15 -29 -15
-185z"/>
<path d="M5587 1954 c-40 -21 -75 -84 -94 -165 -38 -171 51 -272 148 -169 42
44 49 47 49 25 0 -8 5 -26 12 -40 12 -28 36 -32 86 -14 l31 11 -26 49 c-23 46
-25 57 -22 152 l4 102 -32 3 c-18 2 -33 7 -33 11 0 4 -9 17 -20 29 -24 25 -63
28 -103 6z"/>
<path d="M6123 1955 c-68 -29 -125 -191 -102 -290 12 -54 40 -84 77 -85 35 0
59 16 92 62 23 31 30 36 30 21 0 -11 5 -34 11 -52 9 -25 16 -31 41 -31 24 0
59 12 76 25 1 1 -9 23 -24 49 -24 43 -26 54 -23 149 l4 102 -32 3 c-18 2 -33
7 -33 13 0 18 -40 49 -62 49 -13 -1 -37 -7 -55 -15z"/>
<path d="M6895 1942 c-33 -9 -63 -21 -67 -27 -5 -6 -11 -6 -20 3 -9 9 -9 12 2
12 7 0 11 2 8 5 -8 9 -60 -14 -54 -23 3 -5 -1 -9 -8 -9 -15 0 -76 -44 -76 -55
0 -4 -7 -8 -15 -8 -8 0 -15 -7 -15 -15 0 -8 -4 -15 -9 -15 -4 0 -21 -19 -37
-42 -16 -24 -32 -45 -35 -48 -11 -10 -61 -123 -76 -174 -24 -80 -29 -316 -8
-391 56 -200 172 -349 335 -431 95 -48 142 -53 453 -54 l287 0 0 380 c0 257
-3 380 -10 380 -6 0 -20 -9 -31 -19 -19 -17 -38 -20 -170 -20 -138 -1 -150 0
-166 19 -37 43 -43 27 -43 -109 0 -76 -4 -132 -10 -136 -5 -3 -10 -15 -10 -26
0 -39 -81 -52 -122 -19 -14 10 -29 16 -33 12 -5 -4 -5 -1 -1 6 4 7 13 9 19 6
7 -4 -4 11 -23 32 -55 60 -70 95 -70 159 0 129 97 215 207 185 25 -7 47 -19
50 -27 11 -28 43 -11 99 55 32 37 70 79 86 94 15 15 28 29 28 32 0 2 16 22 36
43 49 52 78 93 65 93 -6 0 -11 5 -11 11 0 28 -150 134 -158 111 -4 -13 -53 -6
-94 14 -38 20 -226 17 -303 -4z"/>
<path d="M10055 1954 c-11 -3 -31 -9 -45 -14 -14 -4 -38 -11 -54 -15 -24 -5
-28 -3 -22 12 5 16 5 16 -6 2 -7 -9 -19 -14 -27 -11 -9 3 -11 0 -6 -8 5 -9 4
-11 -4 -6 -7 5 -27 -4 -47 -19 -37 -28 -104 -93 -104 -100 0 -2 -10 -15 -22
-28 -24 -26 -78 -129 -98 -187 -18 -51 -40 -187 -40 -245 0 -72 25 -201 50
-265 12 -30 24 -63 27 -72 3 -10 8 -18 12 -18 3 0 13 -15 20 -32 17 -37 160
-184 194 -198 12 -6 29 -14 37 -20 86 -54 250 -75 371 -46 59 14 189 75 189
88 0 4 5 8 10 8 12 0 140 129 140 140 0 5 6 15 13 22 19 20 72 136 91 199 22
77 22 310 0 388 -29 102 -129 281 -156 281 -4 0 -8 7 -8 15 0 8 -5 15 -11 15
-5 0 -22 13 -37 28 -40 42 -82 66 -94 54 -6 -6 -18 -7 -27 -2 -42 21 -115 33
-216 35 -60 2 -119 1 -130 -1z m182 -446 c15 -7 42 -32 60 -56 30 -40 33 -50
33 -114 0 -62 -4 -76 -31 -117 -17 -25 -37 -49 -45 -54 -7 -4 -11 -14 -8 -22
6 -16 -43 -45 -76 -45 -35 0 -94 31 -78 41 10 7 10 9 -1 9 -8 0 -11 3 -8 6 4
4 -4 16 -16 28 -46 42 -60 77 -61 151 0 52 5 78 19 100 55 87 130 113 212 73z"/>
<path d="M5465 1374 c-58 -9 -175 -56 -203 -81 -7 -7 -17 -13 -21 -13 -15 0
-103 -94 -122 -131 -10 -21 -19 -58 -19 -83 0 -41 3 -47 31 -61 17 -9 32 -15
34 -13 1 2 12 22 24 45 43 86 49 70 60 -149 4 -96 13 -172 20 -186 11 -21 17
-22 57 -16 27 4 56 2 74 -6 53 -22 149 17 220 89 52 52 108 161 134 257 39
146 4 260 -101 325 -32 20 -128 32 -188 23z m136 -160 c20 -6 39 -46 39 -85 0
-89 -127 -243 -229 -277 -69 -24 -67 -27 -57 119 9 122 8 133 -9 145 -19 14
-59 10 -83 -9 -7 -5 -15 -7 -18 -4 -3 3 7 14 23 23 15 10 30 21 33 24 3 3 19
12 35 20 111 52 189 65 266 44z"/>
<path d="M6137 1292 c-35 -14 -38 -18 -31 -41 5 -14 8 -144 9 -288 0 -298 -2
-292 84 -293 l44 0 -8 38 c-16 78 -20 194 -11 380 10 235 7 243 -87 204z"/>
<path d="M5898 1046 c-33 -14 -98 -85 -98 -106 0 -9 -5 -21 -11 -27 -16 -16
-15 -103 1 -144 34 -84 119 -118 213 -85 53 18 70 37 61 69 -8 35 -41 35 -73
2 -13 -14 -32 -25 -42 -25 -30 0 -59 31 -59 65 0 30 1 30 44 27 55 -5 120 28
134 67 20 52 20 59 2 99 -28 62 -105 88 -172 58z"/>
<path d="M4551 918 c-6 -7 -37 -49 -70 -93 -54 -73 -98 -119 -189 -197 -17
-16 -34 -28 -37 -28 -3 0 -14 -8 -25 -17 -91 -78 -332 -175 -510 -206 -78 -13
-29 -14 628 -16 680 -1 713 -1 704 16 -5 10 -60 119 -121 243 -62 124 -123
243 -135 265 l-21 40 -107 3 c-77 2 -109 -1 -117 -10z"/>
</g>
</svg>
